<svg width="24" height="18" viewBox="0 0 24 18" fill="none" xmlns="http://www.w3.org/2000/svg">
<path fill-rule="evenodd" clip-rule="evenodd" d="M0 1C0 0.447715 0.447715 0 1 0H23C23.5523 0 24 0.447715 24 1C24 1.55228 23.5523 2 23 2H1C0.447715 2 0 1.55228 0 1ZM0 9C0 8.44772 0.447715 8 1 8H23C23.5523 8 24 8.44772 24 9C24 9.55229 23.5523 10 23 10H1C0.447715 10 0 9.55229 0 9ZM0 17C0 16.4477 0.447715 16 1 16H23C23.5523 16 24 16.4477 24 17C24 17.5523 23.5523 18 23 18H1C0.447715 18 0 17.5523 0 17Z" fill="white"/>
</svg>
